<svg xmlns="http://www.w3.org/2000/svg" viewBox="0 0 140 180" fill="none">
  <path
    d="M47.3 5.1C30 6.2 17.3 19.9 16 40.7c-1.2 20.1 6.1 34.9 11.2 42.5 5 7.5 6.8 18.7 6.8 30.8 0 9.9-2.8 21.2-4.9 31.6-2.4 11.8-3.3 22.8 3.7 28.9 7 6.2 17.3 3.9 22.7-6.6 5.4-10.5 5.9-25.9 8-37.5 1.5-8.7 4.6-13.3 9.1-13.3 4.5 0 7.6 4.6 9.1 13.3 2.1 11.6 2.6 27 8 37.5 5.4 10.5 15.7 12.8 22.7 6.6 7-6.1 6.1-17.1 3.7-28.9-2.1-10.4-4.9-21.7-4.9-31.6 0-12.1 1.8-23.3 6.8-30.8 5.1-7.6 12.4-22.4 11.2-42.5C122.7 20 110 6.2 92.7 5.1 80.8 4.4 71.1 12 65 21.7 58.9 12 49.2 4.4 37.3 5.1Z"
    stroke="#1F2937"
    stroke-width="8"
    stroke-linecap="round"
    stroke-linejoin="round"
  />
</svg>
